<?xml version="1.0" encoding="utf-8"?>
<!DOCTYPE svg PUBLIC "-//W3C//DTD SVG 1.1//EN" "http://www.w3.org/Graphics/SVG/1.1/DTD/svg11.dtd">
<svg version="1.1" xmlns="http://www.w3.org/2000/svg" xmlns:xlink="http://www.w3.org/1999/xlink" x="0px" y="0px"
	 width="216px" height="36px" viewBox="0 0 216 36" enable-background="new 0 0 216 36" xml:space="preserve">
	<g>
		<defs>
			<style>

				path {
					fill: #fff;
				}
				
			</style>
		</defs>
		<path d="M10.01,28.344c-0.92,0-2.08-0.12-3-0.32l-1.68,7.918H0.052l4.679-22.236c-0.76,0.32-2.32,1.2-3.24,1.84
			l0.8-3.719c0.84-0.56,2.32-1.32,3.2-1.68l0.92-4.439l5.399-0.44l-0.68,3.319c0.72-0.2,1.959-0.36,2.919-0.36
			c2.439,0,4.479,0.64,5.839,1.92c1.2,1.12,1.92,2.759,1.92,4.959C21.808,22.505,16.729,28.344,10.01,28.344z M15.409,12.467
			c-0.6-0.56-1.48-0.8-2.56-0.8c-0.76,0-1.92,0.2-2.48,0.4L7.69,24.705c0.44,0.16,1.16,0.24,1.76,0.24
			c4.279,0,6.999-4.959,6.999-9.598C16.449,14.067,16.089,13.107,15.409,12.467z"/>
		<path d="M38.608,25.865c-1.88,1.56-4.359,2.479-7.159,2.479c-4.439,0-7.639-2.399-7.639-7.079
			c0-4.199,1.72-8.159,4.679-10.559c1.879-1.56,4.359-2.479,7.159-2.479c4.439,0,7.639,2.36,7.639,7.039
			C43.288,19.466,41.568,23.465,38.608,25.865z M35.009,11.747c-1.319,0-2.479,0.76-3.359,1.88c-1.64,2.08-2.479,5.399-2.479,7.639
			c0,2.08,0.84,3.559,2.959,3.559c1.32,0,2.439-0.76,3.319-1.879c1.64-2.08,2.48-5.399,2.48-7.639
			C37.929,13.227,37.128,11.747,35.009,11.747z"/>
		<path d="M77.405,27.305c-1.04,0.64-2.359,1.04-3.759,1.04c-2.12,0-3.719-0.96-3.719-3.279c0-0.52,0.08-1.2,0.24-2
			l1.32-6.279c0.2-0.96,0.36-1.76,0.36-2.319c0-1.6-0.8-2.32-2.319-2.32c-1.32,0-2.439,0.76-3.2,1.88
			c-0.72,1.04-1.24,2.56-1.72,4.759l-1.959,9.198h-5.279l2.36-11.198c0.2-0.96,0.32-1.76,0.32-2.319c0-1.6-0.8-2.32-2.319-2.32
			c-1.32,0-2.44,0.76-3.2,1.88c-0.8,1.16-1.28,2.759-1.8,5.199l-1.879,8.758H45.57l3.319-15.637h-2.6l0.8-3.76h5.799l0.2,2.96
			c1.32-1.84,3.72-3.32,6.519-3.32c2.64,0,4.559,1.12,5.399,3.16c1.36-1.76,3.72-3.16,6.399-3.16c3.56,0,5.839,1.96,5.839,5.359
			c0,1-0.2,2.16-0.44,3.359l-1.28,5.999c-0.08,0.4-0.16,0.84-0.16,1.08c0,0.52,0.28,0.8,0.88,0.8c0.52,0,1.28-0.28,1.8-0.56
			L77.405,27.305z"/>
		<path d="M89.289,28.344c-0.92,0-2.08-0.12-3-0.32l-1.68,7.918h-5.279l4.679-22.236c-0.76,0.32-2.32,1.2-3.24,1.84
			l0.8-3.719c0.84-0.56,2.32-1.32,3.2-1.68l0.92-4.439l5.399-0.44l-0.68,3.319c0.72-0.2,1.959-0.36,2.919-0.36
			c2.439,0,4.479,0.64,5.839,1.92c1.2,1.12,1.92,2.759,1.92,4.959C101.087,22.505,96.007,28.344,89.289,28.344z M94.688,12.467
			c-0.6-0.56-1.48-0.8-2.56-0.8c-0.76,0-1.92,0.2-2.48,0.4l-2.679,12.638c0.44,0.16,1.16,0.24,1.76,0.24
			c4.279,0,6.999-4.959,6.999-9.598C95.728,14.067,95.368,13.107,94.688,12.467z"/>
		<path d="M117.887,25.865c-1.88,1.56-4.359,2.479-7.159,2.479c-4.439,0-7.639-2.399-7.639-7.079
			c0-4.199,1.72-8.159,4.679-10.559c1.879-1.56,4.359-2.479,7.159-2.479c4.439,0,7.639,2.36,7.639,7.039
			C122.566,19.466,120.847,23.465,117.887,25.865z M114.288,11.747c-1.32,0-2.479,0.76-3.359,1.88
			c-1.64,2.08-2.479,5.399-2.479,7.639c0,2.08,0.84,3.559,2.959,3.559c1.32,0,2.439-0.76,3.319-1.879
			c1.64-2.08,2.48-5.399,2.48-7.639C117.208,13.227,116.407,11.747,114.288,11.747z"/>
		<path d="M146.646,0.629l-4.679,22.156c-0.08,0.44-0.16,0.88-0.16,1.08c0,0.52,0.32,0.8,0.88,0.8
			c0.52,0,1.28-0.28,1.8-0.56l-0.64,3.04c-1.04,0.64-2.359,1.04-3.759,1.04c-1.6,0-2.959-0.72-3.319-2.12
			c-1.12,1.32-3.16,2.28-5.559,2.28c-4,0-6.639-2.68-6.639-6.959c0-6.958,5.439-13.158,13.078-13.158c0.76,0,1.56,0.08,2.04,0.2
			l0.84-4.04h-2.56l0.8-3.759H146.646z M138.967,11.867c-0.28-0.16-1-0.28-1.6-0.28c-4.08,0-7.439,5-7.439,9.639
			c0,2.279,1.12,3.52,2.919,3.52c1.28,0,2.16-0.48,2.88-1.28c0.72-0.84,1.2-2.08,1.52-3.52L138.967,11.867z"/>
		<path d="M157.007,8.587l-3.04,14.358c-0.08,0.4-0.16,0.84-0.16,1.08c0,0.52,0.32,0.8,0.92,0.8
			c0.52,0,1.24-0.28,1.76-0.56l-0.64,3.04c-1.04,0.64-2.36,1.04-3.759,1.04c-2.12,0-3.68-0.96-3.68-3.279c0-0.56,0.08-1.28,0.28-2.16
			l2.24-10.558h-2.6l0.8-3.76H157.007z M154.607,6.268c-1.36,0-2.36-0.96-2.36-2.36c0-1.879,1.8-3.559,3.64-3.559
			c1.359,0,2.399,0.96,2.399,2.359C158.287,4.588,156.447,6.268,154.607,6.268z"/>
		<path d="M180.285,8.587l-3.08,14.438c-0.08,0.28-0.12,0.64-0.12,0.84c0,0.52,0.32,0.8,0.92,0.8
			c0.52,0,1.24-0.28,1.759-0.56l-0.64,3.04c-1.04,0.64-2.36,1.04-3.759,1.04c-1.68,0-3.04-0.8-3.479-2.16
			c-1.4,1.359-3.399,2.319-5.719,2.319c-3.519,0-5.999-1.919-5.999-5.359c0-1,0.24-2.2,0.48-3.359l2.36-11.039h5.279l-2.359,11.198
			c-0.2,0.96-0.32,1.76-0.32,2.32c0,0.72,0.2,1.28,0.6,1.68s1.04,0.64,1.8,0.64c1.36,0,2.52-0.72,3.319-1.879
			c0.8-1.16,1.28-2.76,1.8-5.199l1.88-8.759H180.285z"/>
		<path d="M214.682,27.305c-1.04,0.64-2.359,1.04-3.759,1.04c-2.12,0-3.719-0.96-3.719-3.279c0-0.52,0.08-1.2,0.24-2
			l1.32-6.279c0.2-0.96,0.36-1.76,0.36-2.319c0-1.6-0.8-2.32-2.319-2.32c-1.32,0-2.439,0.76-3.2,1.88
			c-0.72,1.04-1.24,2.56-1.72,4.759l-1.959,9.198h-5.279l2.36-11.198c0.2-0.96,0.32-1.76,0.32-2.319c0-1.6-0.8-2.32-2.319-2.32
			c-1.32,0-2.44,0.76-3.2,1.88c-0.8,1.16-1.28,2.759-1.8,5.199l-1.879,8.758h-5.279l3.319-15.637h-2.6l0.8-3.76h5.799l0.2,2.96
			c1.32-1.84,3.72-3.32,6.519-3.32c2.64,0,4.559,1.12,5.399,3.16c1.36-1.76,3.72-3.16,6.399-3.16c3.56,0,5.839,1.96,5.839,5.359
			c0,1-0.2,2.16-0.44,3.359l-1.28,5.999c-0.08,0.4-0.16,0.84-0.16,1.08c0,0.52,0.28,0.8,0.88,0.8c0.52,0,1.28-0.28,1.8-0.56
			L214.682,27.305z"/>
	</g>
</svg>
